<svg xmlns="http://www.w3.org/2000/svg" version="1.1" xmlns:xlink="http://www.w3.org/1999/xlink" width="512" height="512" x="0" y="0" viewBox="0 0 352.4 352.4" style="enable-background:new 0 0 512 512" xml:space="preserve" class=""><g><path d="M337.6 161.4h-176v-18h57.6c8.4 0 14.8-6.8 14.8-14.8v-96c0-8.4-6.8-14.8-14.8-14.8H52.4c-8.4 0-14.8 6.8-14.8 14.8v96c0 8.4 6.8 14.8 14.8 14.8h57.2V161.8H14.8c-8.4 0-14.8 6.8-14.8 14.8v9.6c0 8 6.8 14.8 14.8 14.8h19.6v126.4c0 4 3.2 7.2 7.2 7.2s7.2-3.2 7.2-7.2V201h141.6v118.8c0 8.4 6.8 14.8 14.8 14.8h103.6c8.4 0 14.8-6.8 14.8-14.8V201h14c8.4 0 14.8-6.8 14.8-14.8v-10c0-8.4-6.8-14.8-14.8-14.8zm-285.2-32c-.4-.4-.8-.4-.8-.8v-96c0-.4.4-.8.8-.8h166.8c.4 0 .8.4.8.8v96c0 .4-.4.8-.8.8H52.4zm95.2 14.8V161c0 .4-.4.8-.8.8h-22.4c-.4-.4-.8-.8-.8-1.2v-16.4c0-.4.4-.8.8-.8h22.4c.4 0 .8.4.8.8zM310 319.8c0 .4-.4.8-.8.8H205.6c-.4 0-.8-.4-.8-.8v-30.4H310v30.4zm0-44.4H204.8v-32.8H310v32.8zm0-47.2H204.8v-26.4c0-.4.4-.8.8-.8h103.6c.4 0 .8.4.8.8v26.4zm28.4-42.4c0 .4-.4.8-.8.8H14.8c-.4 0-.8-.4-.8-.8v-9.6h.4c0-.4.4-.8.8-.8h322.4c.4 0 .8.4.8.8v9.6z" fill="#7dd3fc" opacity="1" data-original="#000000"></path><path d="M267.6 206.6h-20.8c-4 0-7.2 3.2-7.2 7.2s3.2 7.2 7.2 7.2h20.8c4 0 7.2-3.2 7.2-7.2s-3.2-7.2-7.2-7.2zM267.6 251.8h-20.8c-4 0-7.2 3.2-7.2 7.2s3.2 7.2 7.2 7.2h20.8c4 0 7.2-3.2 7.2-7.2s-3.2-7.2-7.2-7.2zM267.6 298.2h-20.8c-4 0-7.2 3.2-7.2 7.2s3.2 7.2 7.2 7.2h20.8c4 0 7.2-3.2 7.2-7.2s-3.2-7.2-7.2-7.2z" fill="#7dd3fc" opacity="1" data-original="#000000"></path></g></svg>